<?xml version="1.0" encoding="UTF-8"?>
<svg xmlns="http://www.w3.org/2000/svg" viewBox="0 0 35 18">
  <!-- Atomizer SIDE view. Canvas: 35x18, scale=0.01 -->
  <!-- Sci-fi energy weapon. Bulbous emitter, cylindrical body, angular grip -->

  <path id="body" fill="none" stroke="#333" d="
    M 35 7
    L 34 5
    L 32 4
    L 30 3.5
    L 28 3
    L 24 3
    L 20 3.5
    L 16 4
    L 14 5
    L 12 6
    L 10 7.5
    L 10 9
    L 8 10
    L 6 12
    L 4 14
    L 2 15.5
    L 0 17
    L 0 18
    L 3 18
    L 5 16.5
    L 7 14.5
    L 9 12.5
    L 11 11
    L 12 10
    L 14 10
    L 16 10
    L 20 10.5
    L 24 10
    L 28 10
    L 30 10
    L 32 10
    L 34 9
    L 35 8
    Z"/>
</svg>
