<?xml version="1.0" encoding="UTF-8"?>
<svg xmlns="http://www.w3.org/2000/svg" viewBox="0 0 400 200">
  <!-- Boat FRONT view. Canvas: 400x200, centerX=200, scale=0.005 -->
  <!-- 2.0m wide x 1.0m tall. V-hull cross section -->
  <!-- Y=0=top (deck), Y=200=bottom of keel -->

  <!-- BODY: V-hull cross section with flared sides -->
  <path id="body" fill="none" stroke="#333" d="
    M 200 20
    L 250 22
    L 290 28
    L 320 38
    L 344 52
    L 362 70
    L 376 92
    L 384 110
    L 388 126
    L 386 140
    L 378 152
    L 362 162
    L 340 170
    L 310 176
    L 270 182
    L 240 186
    L 200 194
    L 160 186
    L 130 182
    L 90 176
    L 60 170
    L 38 162
    L 22 152
    L 14 140
    L 12 126
    L 16 110
    L 24 92
    L 38 70
    L 56 52
    L 80 38
    L 110 28
    L 150 22
    Z"/>
</svg>
