<?xml version="1.0" encoding="UTF-8"?>
<svg xmlns="http://www.w3.org/2000/svg" viewBox="0 0 200 400">
  <!-- Male character SIDE view v3. Canvas: 200x400, center X=100, scale=0.005 -->
  <!-- CHUNKIER: deeper chest, thicker arms/legs, bigger feet, more butt -->
  <!-- Character faces RIGHT (positive X = front/face) -->

  <!-- BODY: head profile + stocky torso -->
  <path id="body" fill="none" stroke="#333" d="
    M 104 4
    L 112 6
    L 120 12
    L 126 20
    L 128 26
    L 122 30
    L 128 34
    L 126 38
    L 118 42
    L 112 50
    L 108 58
    L 110 66
    L 114 76
    L 118 86
    L 128 96
    L 132 110
    L 130 126
    L 126 142
    L 124 158
    L 126 174
    L 122 190
    L 126 206
    L 126 222
    L 122 238
    L 112 250
    L 100 258
    L 88 250
    L 78 238
    L 72 222
    L 74 206
    L 80 190
    L 76 174
    L 74 158
    L 72 142
    L 70 126
    L 72 110
    L 76 96
    L 82 86
    L 86 76
    L 90 66
    L 92 58
    L 88 50
    L 82 42
    L 76 34
    L 74 26
    L 76 20
    L 80 12
    L 88 6
    L 96 4
    Z"/>

  <!-- ARM side view: thicker, 36 units deep -->
  <path id="arm_R" fill="none" stroke="#555" d="
    M 122 98
    L 124 118
    L 126 138
    L 124 158
    L 128 174
    L 126 194
    L 122 214
    L 120 234
    L 118 248
    L 122 258
    L 124 270
    L 120 282
    L 88 282
    L 84 270
    L 82 258
    L 86 248
    L 86 234
    L 84 214
    L 82 194
    L 80 174
    L 82 158
    L 80 138
    L 78 118
    L 82 102
    Z"/>

  <path id="arm_L" fill="none" stroke="#555" d="
    M 122 98
    L 124 118
    L 126 138
    L 124 158
    L 128 174
    L 126 194
    L 122 214
    L 120 234
    L 118 248
    L 122 258
    L 124 270
    L 120 282
    L 88 282
    L 84 270
    L 82 258
    L 86 248
    L 86 234
    L 84 214
    L 82 194
    L 80 174
    L 82 158
    L 80 138
    L 78 118
    L 82 102
    Z"/>

  <!-- LEG side view: much thicker thighs, pronounced calf, big foot -->
  <path id="leg_R" fill="none" stroke="#777" d="
    M 128 234
    L 132 256
    L 132 278
    L 130 298
    L 126 312
    L 122 328
    L 116 344
    L 112 360
    L 108 374
    L 108 384
    L 116 392
    L 136 398
    L 136 402
    L 82 402
    L 80 398
    L 86 384
    L 88 374
    L 90 360
    L 94 344
    L 102 328
    L 90 312
    L 82 298
    L 76 278
    L 74 256
    L 76 240
    Z"/>

  <path id="leg_L" fill="none" stroke="#777" d="
    M 128 234
    L 132 256
    L 132 278
    L 130 298
    L 126 312
    L 122 328
    L 116 344
    L 112 360
    L 108 374
    L 108 384
    L 116 392
    L 136 398
    L 136 402
    L 82 402
    L 80 398
    L 86 384
    L 88 374
    L 90 360
    L 94 344
    L 102 328
    L 90 312
    L 82 298
    L 76 278
    L 74 256
    L 76 240
    Z"/>
</svg>
