<?xml version="1.0" encoding="UTF-8"?>
<svg xmlns="http://www.w3.org/2000/svg" viewBox="0 0 120 300">
  <!-- Motorcycle FRONT view. Canvas: 120x300, centerX=60, scale=0.005 -->
  <!-- 0.6m wide x 1.5m tall. Very narrow profile -->
  <!-- Y=0=top (handlebars), Y=300=ground -->

  <!-- BODY: narrow front cross-section - headlight, forks, engine, wheel -->
  <path id="body" fill="none" stroke="#333" d="
    M 60 16
    L 72 20
    L 82 28
    L 88 40
    L 92 56
    L 94 74
    L 94 94
    L 92 112
    L 88 128
    L 86 144
    L 86 162
    L 88 178
    L 92 194
    L 96 210
    L 98 226
    L 98 242
    L 96 256
    L 90 268
    L 82 278
    L 72 286
    L 60 290
    L 48 286
    L 38 278
    L 30 268
    L 24 256
    L 22 242
    L 22 226
    L 24 210
    L 28 194
    L 32 178
    L 34 162
    L 34 144
    L 32 128
    L 28 112
    L 26 94
    L 26 74
    L 28 56
    L 32 40
    L 38 28
    L 48 20
    Z"/>
</svg>
