<?xml version="1.0" encoding="UTF-8"?>
<svg xmlns="http://www.w3.org/2000/svg" viewBox="0 0 22 14">
  <!-- Pistol SIDE view. Canvas: 22x14 (cm), sideCenterX=11, scale=0.01 -->
  <!-- Barrel points RIGHT (+X). Y=0=top (sights), Y=14=bottom (magazine base) -->
  <!-- Side profile: slide on top, barrel extending right, grip angling back-down -->

  <path id="body" fill="none" stroke="#333" d="
    M 6.0 1.0
    L 7.0 0.5
    L 8.5 0.2
    L 10.0 0.1
    L 13.0 0.0
    L 16.0 0.0
    L 18.0 0.1
    L 19.5 0.2
    L 20.5 0.4
    L 21.0 0.8
    L 21.2 1.2
    L 21.3 1.8
    L 21.2 2.4
    L 21.0 3.0
    L 20.8 3.4
    L 20.5 3.6
    L 19.0 3.8
    L 17.0 3.9
    L 15.0 4.0
    L 13.0 4.0
    L 11.5 4.0
    L 10.5 4.2
    L 10.0 4.6
    L 9.8 5.0
    L 9.5 5.8
    L 8.5 5.6
    L 8.2 6.0
    L 8.0 6.8
    L 7.8 7.5
    L 7.5 8.2
    L 7.2 9.0
    L 7.0 10.0
    L 6.8 11.0
    L 6.5 12.0
    L 6.2 12.8
    L 5.8 13.4
    L 5.2 13.7
    L 4.5 13.8
    L 3.8 13.5
    L 3.5 13.0
    L 3.4 12.2
    L 3.5 11.0
    L 3.8 10.0
    L 4.0 9.0
    L 4.2 8.2
    L 4.5 7.5
    L 4.8 6.8
    L 5.0 6.0
    L 5.2 5.4
    L 5.0 4.8
    L 4.5 4.5
    L 3.8 4.2
    L 3.2 3.8
    L 2.8 3.4
    L 2.5 3.0
    L 2.5 2.5
    L 2.8 2.0
    L 3.5 1.6
    L 4.5 1.3
    Z"/>
</svg>
