<?xml version="1.0" encoding="UTF-8"?>
<svg xmlns="http://www.w3.org/2000/svg" viewBox="0 0 7 22">
  <!-- Pistol TOP view (looking down). Canvas: 7x22 (cm) -->
  <!-- X = left-right (width), Y = front-back (barrel toward Y=0) -->
  <!-- centerX=3.5, centerY=11 -->
  <!-- Narrow barrel at top, slightly wider receiver/slide, wider grip at bottom -->

  <path id="body" fill="none" stroke="#333" d="
    M 3.5 0.5
    L 4.2 0.8
    L 4.5 1.2
    L 4.6 2.0
    L 4.6 3.0
    L 4.5 4.0
    L 4.5 5.0
    L 4.6 6.0
    L 4.8 7.0
    L 5.0 8.0
    L 5.2 9.0
    L 5.4 10.0
    L 5.5 11.0
    L 5.5 12.0
    L 5.4 13.0
    L 5.2 14.0
    L 5.0 15.0
    L 4.8 16.0
    L 4.5 17.0
    L 4.2 18.0
    L 4.0 19.0
    L 3.8 19.8
    L 3.5 20.2
    L 3.2 19.8
    L 3.0 19.0
    L 2.8 18.0
    L 2.5 17.0
    L 2.2 16.0
    L 2.0 15.0
    L 1.8 14.0
    L 1.6 13.0
    L 1.5 12.0
    L 1.5 11.0
    L 1.6 10.0
    L 1.8 9.0
    L 2.0 8.0
    L 2.2 7.0
    L 2.4 6.0
    L 2.5 5.0
    L 2.5 4.0
    L 2.4 3.0
    L 2.4 2.0
    L 2.5 1.2
    L 2.8 0.8
    Z"/>
</svg>
