<?xml version="1.0" encoding="UTF-8"?>
<svg xmlns="http://www.w3.org/2000/svg" viewBox="0 0 10 24">
  <!-- Rifle FRONT view. Canvas: 10x24 (cm), centerX=5, scale=0.01 -->
  <!-- Y=0=top (carry handle), Y=24=bottom (magazine base). X centered at 5 -->
  <!-- Front: carry handle at top, narrow barrel, wider receiver, magazine poking down -->

  <path id="body" fill="none" stroke="#333" d="
    M 5.0 0.3
    L 5.6 0.5
    L 5.8 1.0
    L 5.8 1.8
    L 5.6 2.2
    L 5.8 2.4
    L 6.2 2.8
    L 6.4 3.4
    L 6.6 4.2
    L 6.8 5.2
    L 6.8 6.2
    L 6.6 7.0
    L 6.4 7.8
    L 6.2 8.4
    L 6.0 9.0
    L 5.8 9.6
    L 5.8 10.4
    L 6.0 11.0
    L 6.2 11.8
    L 6.4 12.6
    L 6.5 13.5
    L 6.4 14.5
    L 6.2 15.5
    L 6.0 16.5
    L 5.8 17.5
    L 5.6 18.5
    L 5.5 19.5
    L 5.6 20.5
    L 5.8 21.5
    L 5.6 22.2
    L 5.3 22.8
    L 5.0 23.2
    L 4.7 22.8
    L 4.4 22.2
    L 4.2 21.5
    L 4.4 20.5
    L 4.5 19.5
    L 4.4 18.5
    L 4.2 17.5
    L 4.0 16.5
    L 3.8 15.5
    L 3.6 14.5
    L 3.5 13.5
    L 3.6 12.6
    L 3.8 11.8
    L 4.0 11.0
    L 4.2 10.4
    L 4.2 9.6
    L 4.0 9.0
    L 3.8 8.4
    L 3.6 7.8
    L 3.4 7.0
    L 3.2 6.2
    L 3.2 5.2
    L 3.4 4.2
    L 3.6 3.4
    L 3.8 2.8
    L 4.2 2.4
    L 4.4 2.2
    L 4.2 1.8
    L 4.2 1.0
    L 4.4 0.5
    Z"/>
</svg>
