<?xml version="1.0" encoding="UTF-8"?>
<svg xmlns="http://www.w3.org/2000/svg" viewBox="0 0 80 24">
  <!-- Rifle SIDE view. Canvas: 80x24 (cm), sideCenterX=40, scale=0.01 -->
  <!-- Barrel points RIGHT. Y=0=top (carry handle), Y=24=bottom (magazine base) -->
  <!-- Profile: carry handle on top of receiver, barrel+handguard right, magazine below, stock left -->

  <path id="body" fill="none" stroke="#333" d="
    M 14.0 6.0
    L 16.0 5.2
    L 18.0 4.5
    L 20.0 4.0
    L 23.0 3.6
    L 26.0 3.2
    L 30.0 2.8
    L 34.0 2.5
    L 36.0 2.2
    L 37.0 1.5
    L 37.5 0.8
    L 38.0 0.4
    L 39.0 0.2
    L 42.0 0.2
    L 44.0 0.4
    L 45.0 0.8
    L 45.5 1.5
    L 46.0 2.2
    L 48.0 2.4
    L 50.0 2.5
    L 53.0 2.6
    L 56.0 2.8
    L 60.0 3.0
    L 65.0 3.0
    L 70.0 2.8
    L 74.0 2.6
    L 76.0 2.5
    L 77.5 2.4
    L 78.0 2.6
    L 78.2 3.0
    L 78.0 3.5
    L 77.0 3.8
    L 74.0 4.0
    L 70.0 4.2
    L 65.0 4.5
    L 60.0 4.8
    L 56.0 5.0
    L 53.0 5.2
    L 50.0 5.5
    L 48.0 5.8
    L 46.0 6.0
    L 44.0 6.2
    L 42.0 6.5
    L 40.0 7.0
    L 38.0 7.5
    L 36.0 8.0
    L 35.0 8.5
    L 34.5 9.0
    L 34.0 9.8
    L 33.5 10.5
    L 34.0 11.0
    L 35.0 11.5
    L 36.0 12.0
    L 37.0 13.0
    L 37.5 14.0
    L 37.5 15.5
    L 37.0 17.0
    L 36.5 18.0
    L 35.5 18.5
    L 34.0 18.2
    L 33.5 17.5
    L 33.0 16.5
    L 32.5 15.0
    L 32.0 13.5
    L 31.5 12.5
    L 31.0 11.5
    L 30.0 10.5
    L 28.5 9.8
    L 27.0 9.2
    L 25.0 8.8
    L 23.0 8.5
    L 21.0 8.2
    L 19.0 8.0
    L 17.0 8.0
    L 15.0 8.2
    L 13.0 8.5
    L 11.0 9.0
    L 9.0 9.8
    L 7.5 10.5
    L 6.5 11.2
    L 5.5 12.0
    L 4.8 12.8
    L 4.5 13.5
    L 4.2 14.0
    L 3.8 14.2
    L 3.2 14.0
    L 3.0 13.2
    L 3.0 12.2
    L 3.2 11.2
    L 3.8 10.2
    L 4.5 9.2
    L 5.5 8.4
    L 7.0 7.6
    L 9.0 7.0
    L 11.0 6.5
    Z"/>
</svg>
