<?xml version="1.0" encoding="UTF-8"?>
<svg xmlns="http://www.w3.org/2000/svg" viewBox="0 0 100 18">
  <!-- Shotgun SIDE view. Canvas: 100x18 (cm), sideCenterX=50, scale=0.01 -->
  <!-- Barrel points RIGHT. Y=0=top, Y=18=bottom -->
  <!-- Profile: long barrel + tube magazine on top, receiver in middle, wood stock angling down-left -->

  <path id="body" fill="none" stroke="#333" d="
    M 10.0 6.0
    L 12.0 5.0
    L 15.0 4.2
    L 18.0 3.6
    L 22.0 3.2
    L 28.0 3.0
    L 35.0 2.8
    L 42.0 2.6
    L 50.0 2.4
    L 58.0 2.2
    L 65.0 2.0
    L 72.0 1.8
    L 78.0 1.6
    L 83.0 1.4
    L 87.0 1.2
    L 90.0 1.0
    L 92.0 0.8
    L 94.0 0.5
    L 95.5 0.3
    L 96.5 0.4
    L 97.0 0.8
    L 97.2 1.4
    L 97.0 2.0
    L 96.5 2.5
    L 95.0 2.8
    L 92.0 3.0
    L 90.0 3.2
    L 87.0 3.4
    L 83.0 3.6
    L 78.0 3.8
    L 72.0 4.0
    L 65.0 4.2
    L 60.0 4.4
    L 56.0 4.8
    L 53.0 5.2
    L 51.0 5.6
    L 49.0 6.0
    L 48.0 6.5
    L 47.0 7.2
    L 46.5 7.8
    L 46.0 8.5
    L 44.0 8.8
    L 42.0 9.0
    L 40.0 9.5
    L 38.0 9.8
    L 36.0 10.2
    L 33.0 10.8
    L 30.0 11.5
    L 27.0 12.2
    L 24.0 13.0
    L 21.0 13.8
    L 18.0 14.5
    L 15.0 15.2
    L 12.0 15.8
    L 9.0 16.2
    L 7.0 16.5
    L 5.5 16.6
    L 4.5 16.5
    L 3.8 16.0
    L 3.5 15.4
    L 3.5 14.8
    L 3.8 14.2
    L 4.5 13.8
    L 5.5 13.5
    L 7.0 13.0
    L 9.0 12.2
    L 11.0 11.2
    L 13.0 10.2
    L 15.0 9.2
    L 17.0 8.5
    L 19.0 7.8
    L 21.0 7.2
    L 24.0 6.8
    L 28.0 6.5
    L 32.0 6.4
    L 36.0 6.3
    L 38.0 6.2
    L 39.0 6.0
    L 38.5 5.6
    L 36.0 5.8
    L 33.0 6.0
    L 30.0 6.1
    L 27.0 6.2
    L 22.0 6.5
    L 18.0 6.6
    L 15.0 6.4
    L 12.0 6.2
    Z"/>
</svg>
