<?xml version="1.0" encoding="UTF-8"?>
<svg xmlns="http://www.w3.org/2000/svg" viewBox="0 0 10 18">
  <!-- Shotgun FRONT view. Canvas: 10x18 (cm), centerX=5, scale=0.01 -->
  <!-- Y=0=top (barrel top), Y=18=bottom (stock base). X centered at 5 -->
  <!-- Front: circular barrel opening at top, wider receiver body below, stock at bottom -->

  <path id="body" fill="none" stroke="#333" d="
    M 5.0 0.3
    L 5.8 0.5
    L 6.2 1.0
    L 6.4 1.8
    L 6.2 2.6
    L 5.8 3.0
    L 6.0 3.2
    L 6.5 3.6
    L 7.0 4.2
    L 7.3 5.0
    L 7.4 6.0
    L 7.3 7.0
    L 7.2 8.0
    L 7.0 9.0
    L 6.8 10.0
    L 6.5 11.0
    L 6.3 11.8
    L 6.5 12.4
    L 7.0 13.0
    L 7.5 13.8
    L 7.8 14.5
    L 7.8 15.2
    L 7.5 16.0
    L 7.0 16.6
    L 6.5 17.0
    L 5.8 17.4
    L 5.0 17.5
    L 4.2 17.4
    L 3.5 17.0
    L 3.0 16.6
    L 2.5 16.0
    L 2.2 15.2
    L 2.2 14.5
    L 2.5 13.8
    L 3.0 13.0
    L 3.5 12.4
    L 3.7 11.8
    L 3.5 11.0
    L 3.2 10.0
    L 3.0 9.0
    L 2.8 8.0
    L 2.7 7.0
    L 2.6 6.0
    L 2.7 5.0
    L 3.0 4.2
    L 3.5 3.6
    L 4.0 3.2
    L 4.2 3.0
    L 3.8 2.6
    L 3.6 1.8
    L 3.8 1.0
    L 4.2 0.5
    Z"/>
</svg>
