<?xml version="1.0" encoding="UTF-8"?>
<svg xmlns="http://www.w3.org/2000/svg" viewBox="0 0 10 22">
  <!-- SMG FRONT view. Canvas: 10x22 (cm), centerX=5, scale=0.01 -->
  <!-- Y=0=top (barrel/sights), Y=22=bottom (magazine base). X centered at 5 -->
  <!-- Front: narrow barrel at top, boxy receiver, magazine below -->

  <path id="body" fill="none" stroke="#333" d="
    M 5.0 0.3
    L 5.8 0.5
    L 6.2 1.0
    L 6.4 1.8
    L 6.2 2.6
    L 6.0 3.2
    L 6.2 3.6
    L 6.6 4.2
    L 7.0 5.0
    L 7.2 6.0
    L 7.2 7.0
    L 7.0 8.0
    L 6.8 9.0
    L 6.6 10.0
    L 6.4 10.8
    L 6.2 11.5
    L 6.0 12.0
    L 5.8 12.8
    L 5.6 13.5
    L 5.8 14.2
    L 6.0 15.0
    L 6.2 16.0
    L 6.2 17.0
    L 6.0 18.0
    L 5.8 19.0
    L 5.5 20.0
    L 5.2 20.8
    L 5.0 21.2
    L 4.8 20.8
    L 4.5 20.0
    L 4.2 19.0
    L 4.0 18.0
    L 3.8 17.0
    L 3.8 16.0
    L 4.0 15.0
    L 4.2 14.2
    L 4.4 13.5
    L 4.2 12.8
    L 4.0 12.0
    L 3.8 11.5
    L 3.6 10.8
    L 3.4 10.0
    L 3.2 9.0
    L 3.0 8.0
    L 2.8 7.0
    L 2.8 6.0
    L 3.0 5.0
    L 3.4 4.2
    L 3.8 3.6
    L 4.0 3.2
    L 3.8 2.6
    L 3.6 1.8
    L 3.8 1.0
    L 4.2 0.5
    Z"/>
</svg>
