<?xml version="1.0" encoding="UTF-8"?>
<svg xmlns="http://www.w3.org/2000/svg" viewBox="0 0 10 40">
  <!-- SMG TOP view (looking down). Canvas: 10x40 (cm) -->
  <!-- X = left-right (width), Y = front-back (barrel toward Y=0) -->
  <!-- centerX=5, centerY=20 -->
  <!-- Narrow barrel at top, wider boxy receiver, stock at bottom -->

  <path id="body" fill="none" stroke="#333" d="
    M 5.0 1.5
    L 5.6 2.0
    L 5.8 3.0
    L 5.8 4.5
    L 5.6 6.0
    L 5.5 8.0
    L 5.6 10.0
    L 5.8 12.0
    L 6.2 14.0
    L 6.8 16.0
    L 7.2 18.0
    L 7.4 20.0
    L 7.2 22.0
    L 6.8 24.0
    L 6.4 26.0
    L 6.0 28.0
    L 5.8 30.0
    L 5.8 32.0
    L 6.0 34.0
    L 6.2 35.5
    L 6.0 36.5
    L 5.5 37.5
    L 5.0 38.0
    L 4.5 37.5
    L 4.0 36.5
    L 3.8 35.5
    L 4.0 34.0
    L 4.2 32.0
    L 4.2 30.0
    L 4.0 28.0
    L 3.6 26.0
    L 3.2 24.0
    L 2.8 22.0
    L 2.6 20.0
    L 2.8 18.0
    L 3.2 16.0
    L 3.8 14.0
    L 4.2 12.0
    L 4.4 10.0
    L 4.5 8.0
    L 4.4 6.0
    L 4.2 4.5
    L 4.2 3.0
    L 4.4 2.0
    Z"/>
</svg>
