<?xml version="1.0" encoding="UTF-8"?>
<svg xmlns="http://www.w3.org/2000/svg" viewBox="0 0 40 22">
  <!-- SMG SIDE view. Canvas: 40x22 (cm), sideCenterX=20, scale=0.01 -->
  <!-- Barrel points RIGHT. Y=0=top (sights), Y=22=bottom (magazine base) -->
  <!-- Profile: short barrel, boxy receiver, pistol grip+magazine below, folding stock extends left -->

  <path id="body" fill="none" stroke="#333" d="
    M 6.0 5.0
    L 7.5 4.2
    L 9.0 3.5
    L 11.0 3.0
    L 13.0 2.8
    L 15.0 2.6
    L 17.0 2.4
    L 19.0 2.2
    L 21.0 2.0
    L 23.0 1.8
    L 25.0 1.5
    L 27.0 1.2
    L 29.0 1.0
    L 31.0 0.8
    L 33.0 0.5
    L 34.5 0.3
    L 35.5 0.4
    L 36.0 0.8
    L 36.2 1.4
    L 36.0 2.0
    L 35.2 2.5
    L 33.5 2.8
    L 31.5 3.0
    L 29.5 3.2
    L 27.5 3.5
    L 25.5 3.8
    L 24.0 4.0
    L 22.5 4.4
    L 21.0 5.0
    L 20.0 5.5
    L 19.5 6.2
    L 19.0 7.0
    L 18.5 7.8
    L 18.0 8.5
    L 17.5 9.2
    L 17.0 10.0
    L 16.0 10.5
    L 14.5 10.2
    L 14.0 11.0
    L 13.5 12.0
    L 13.0 13.0
    L 12.5 14.0
    L 12.0 15.0
    L 11.5 16.0
    L 11.0 17.0
    L 10.5 18.0
    L 10.0 19.0
    L 9.5 19.8
    L 9.0 20.5
    L 8.2 21.0
    L 7.2 21.2
    L 6.5 20.8
    L 6.0 20.0
    L 5.8 19.0
    L 5.8 18.0
    L 6.0 17.0
    L 6.5 16.0
    L 7.0 15.0
    L 7.5 14.0
    L 8.0 13.0
    L 8.5 12.0
    L 9.0 11.0
    L 9.5 10.0
    L 9.5 9.2
    L 9.0 8.8
    L 8.0 8.5
    L 7.0 8.2
    L 6.0 7.8
    L 5.0 7.2
    L 4.2 6.5
    L 3.8 6.0
    L 3.8 5.5
    L 4.2 5.2
    L 5.0 5.0
    Z"/>
</svg>
