<?xml version="1.0" encoding="UTF-8"?>
<svg xmlns="http://www.w3.org/2000/svg" viewBox="0 0 1100 440">
  <!-- Truck SIDE view. Canvas: 1100x440, centerX=550, scale=0.005 -->
  <!-- 5.5m long x 2.2m tall. Cab + cargo bed -->

  <path id="body" fill="none" stroke="#333" d="
    M 380 40
    L 460 36
    L 520 40
    L 560 56
    L 590 80
    L 610 110
    L 630 130
    L 680 136
    L 740 140
    L 800 140
    L 860 140
    L 920 140
    L 980 140
    L 1020 144
    L 1050 156
    L 1068 176
    L 1074 200
    L 1074 240
    L 1074 280
    L 1070 310
    L 1056 336
    L 1030 352
    L 990 360
    L 940 366
    L 880 372
    L 820 366
    L 780 354
    L 740 352
    L 680 352
    L 600 352
    L 540 354
    L 480 366
    L 420 372
    L 360 366
    L 310 360
    L 260 352
    L 220 336
    L 196 310
    L 184 280
    L 180 240
    L 180 200
    L 186 176
    L 200 156
    L 224 144
    L 260 140
    L 300 136
    L 340 130
    L 360 110
    L 370 80
    L 374 56
    Z"/>
</svg>
